<svg xmlns="http://www.w3.org/2000/svg" xmlns:xlink="http://www.w3.org/1999/xlink" viewBox="0 0 33.56 19.58"><defs><style>.cls-1{fill:none;}.cls-2{clip-path:url(#clip-path);}.cls-3{fill:#fff;}.cls-4{fill:#f0953e;}.cls-5{fill:#3b8916;}.cls-6{fill:#16007e;}</style><clipPath id="clip-path"><rect class="cls-1" width="33.56" height="19.58"/></clipPath></defs><g id="Layer_2" data-name="Layer 2"><g id="_4" data-name="4"><g id="INDIA"><g class="cls-2"><rect class="cls-3" width="33.56" height="19.58"/><rect class="cls-4" width="33.56" height="6.53"/><rect class="cls-5" y="13.05" width="33.56" height="6.52"/><g class="cls-2"><path class="cls-6" d="M16.78,6.86a2.94,2.94,0,1,0,2.94,2.93,2.94,2.94,0,0,0-2.94-2.93m0,.28-.07,1.48.08.84.07-.84-.07-1.48H17a.12.12,0,0,0,.12.13.13.13,0,0,0,.12-.11l.21.05L17,8.64l-.14.83.29-.8.31-1.44.21.07v0a.12.12,0,0,0,.13.12.14.14,0,0,0,.11-.07l.2.11L17.3,8.73,17,9.5l.49-.69.67-1.31.19.11a.13.13,0,0,0,0,.08.12.12,0,0,0,.12.12.1.1,0,0,0,.1,0l.16.15-1.09,1L17,9.55,17.67,9l1-1.1.15.16a.14.14,0,0,0,0,.1.13.13,0,0,0,.12.12.13.13,0,0,0,.08,0l.11.19-1.31.67-.69.49.77-.35,1.24-.81a2,2,0,0,0,.11.21.13.13,0,0,0-.08.12.12.12,0,0,0,.12.12h.05l.06.21-1.44.3-.79.29.83-.14,1.4-.45a1.6,1.6,0,0,1,.05.21.13.13,0,0,0,0,.25h0a1.55,1.55,0,0,1,0,.22L18,9.71l-.85.08.85.08,1.47-.08a1.69,1.69,0,0,1,0,.23h0a.12.12,0,0,0-.12.12.12.12,0,0,0,.1.12,1.6,1.6,0,0,1-.05.21l-.5-.16-.9-.29-.83-.14h0l.79.29,1.44.31a1.72,1.72,0,0,1-.07.21h0a.12.12,0,0,0-.12.12.07.07,0,0,0,0,0h0a.09.09,0,0,0,0,.05h0a1.74,1.74,0,0,1-.1.19l-1.24-.8h0L17.07,10h0l.41.28.28.21h0l1.31.67a1,1,0,0,1-.12.19l-.07,0a.12.12,0,0,0-.12.12.11.11,0,0,0,0,.09l-.15.16-1-1.09L17,10l.54.65,1.09,1a1.07,1.07,0,0,1-.16.14.08.08,0,0,0-.07,0,.12.12,0,0,0-.12.12.07.07,0,0,0,0,.05l-.2.13-.67-1.32L17,10.08h0l.35.77.8,1.24-.19.1a.11.11,0,0,0-.11-.07.12.12,0,0,0-.12.12v0l-.21.06-.31-1.45-.29-.78h0L17,11l.45,1.4-.21.05a.12.12,0,0,0-.12-.1.11.11,0,0,0-.12.11v0h-.22L16.86,11l-.08-.85-.07.85.07,1.47h-.23v0a.11.11,0,0,0-.12-.11.12.12,0,0,0-.12.1l-.21-.05.45-1.4.14-.83-.29.78-.31,1.45-.21-.06a.43.43,0,0,1,0,0,.13.13,0,0,0-.12-.12.15.15,0,0,0-.12.07l-.19-.1.8-1.24.35-.77-.49.69-.67,1.32L15.26,12a.08.08,0,0,0,0-.07.12.12,0,0,0-.12-.12.12.12,0,0,0-.1.05l-.16-.15,1.1-1,.54-.65h0l-.65.54-1,1.09-.16-.16a.12.12,0,0,0,.05-.1.11.11,0,0,0-.12-.11h-.07a1.13,1.13,0,0,1-.12-.18l1.31-.68.69-.48-.77.35-1.24.8-.1-.19a.12.12,0,0,0,.08-.11.12.12,0,0,0-.12-.13l-.05,0-.07-.22,1.45-.31.79-.29-.84.14-1.4.45c0-.07,0-.14-.05-.22a.11.11,0,0,0,.11-.11.12.12,0,0,0-.13-.12h0c0-.07,0-.15,0-.23l1.48.08.84-.08-.84-.08-1.48.08c0-.08,0-.15,0-.22h0a.12.12,0,0,0,.12-.12.13.13,0,0,0-.11-.13c0-.07,0-.14.05-.21l1.4.45.84.14-.79-.29L14.22,9.1l.07-.21h0a.13.13,0,0,0,.13-.12.12.12,0,0,0-.08-.11l.1-.21,1.24.81.77.35-.69-.49-1.31-.67.12-.19a.11.11,0,0,0,.07,0,.12.12,0,0,0,.12-.12.18.18,0,0,0,0-.1,1.07,1.07,0,0,1,.14-.16l1,1.1.66.53L16,8.9l-1.1-1,.16-.14a.15.15,0,0,0,.1,0,.12.12,0,0,0,.12-.12.24.24,0,0,0,0-.08l.18-.11.67,1.31.49.69-.35-.77-.8-1.23.19-.11a.12.12,0,0,0,.12.08.13.13,0,0,0,.12-.12.43.43,0,0,0,0,0l.21-.07.31,1.44.3.8-.15-.83L16.1,7.23l.22-.05a.12.12,0,0,0,.12.11.13.13,0,0,0,.12-.13h.22"/><path class="cls-3" d="M16.79,9.35a.44.44,0,0,1,0,.88.44.44,0,1,1,0-.88"/><path class="cls-6" d="M16.79,9.45a.34.34,0,0,1,0,.68.34.34,0,1,1,0-.68"/></g></g></g></g></g></svg>