<?xml version="1.0" encoding="utf-8"?><svg version="1.1" id="Layer_1" xmlns="http://www.w3.org/2000/svg" xmlns:xlink="http://www.w3.org/1999/xlink" x="0px" y="0px" viewBox="0 0 55.2 38.4" style="enable-background:new 0 0 55.2 38.4" xml:space="preserve"><style type="text/css"><![CDATA[
	.st0{fill:#C7202F;}
	.st1{fill:#C8102E;}
	.st2{fill:#FF0000;}
	.st3{fill:#FFFFFF;}
	.st4{fill:#012169;}
	.st5{fill-rule:evenodd;clip-rule:evenodd;fill:#FFFFFF;}
]]></style><g><polygon class="st5" points="16.07,22.94 17.08,26.1 20.19,24.92 18.35,27.7 21.21,29.39 17.9,29.68 18.36,32.97 16.07,30.56 13.77,32.97 14.23,29.68 10.92,29.39 13.78,27.7 11.94,24.92 15.05,26.1 16.07,22.94"/><polygon class="st5" points="43.16,5.17 43.64,6.67 45.13,6.11 44.25,7.43 45.61,8.24 44.03,8.38 44.25,9.95 43.16,8.8 42.07,9.95 42.29,8.38 40.71,8.24 42.07,7.43 41.19,6.11 42.67,6.67 43.16,5.17"/><path class="st3" d="M0,0v1.75l27.85,13.92h3.5v-1.75L3.51,0H0L0,0z M31.36,0v1.75L3.51,15.68H0v-1.75L27.85,0H31.36L31.36,0z"/><path class="st3" d="M13.07,0v15.68h5.23V0H13.07L13.07,0z M0,5.23v5.23h31.35V5.23H0L0,5.23z"/><path class="st2" d="M0,6.27v3.14h31.35V6.27H0L0,6.27z M14.11,0v15.68h3.14V0H14.11L14.11,0z"/><path class="st4" d="M52.17,0H3.03C1.36,0,0,1.36,0,3.03v32.33c0,1.67,1.36,3.03,3.03,3.03h49.13c1.67,0,3.03-1.37,3.03-3.03V3.03 C55.2,1.36,53.83,0,52.17,0L52.17,0z"/><path class="st3" d="M0.23,1.87l27.62,13.81h3.5v-1.75L3.51,0H3.03C1.78,0,0.69,0.77,0.23,1.87L0.23,1.87z M31.36,0v1.75 L3.51,15.68H0v-1.75L27.85,0H31.36L31.36,0z"/><path class="st3" d="M13.07,0v15.68h5.23V0H13.07L13.07,0z M0,5.23v5.23h31.35V5.23H0L0,5.23z"/><path class="st1" d="M0,6.27v3.14h31.35V6.27H0L0,6.27z M14.11,0v15.68h3.14V0H14.11L14.11,0z"/><path class="st1" d="M0,15.68l10.45-5.23h2.34L2.34,15.68H0L0,15.68z M0.48,1.41c0.2-0.31,0.45-0.58,0.74-0.8l9.24,4.62H8.12 L0.48,1.41L0.48,1.41z M18.57,5.23L29.02,0h2.34L20.9,5.23H18.57L18.57,5.23z M31.36,15.68L20.9,10.45h2.34l8.11,4.06V15.68 L31.36,15.68z"/><polygon class="st3" points="43.25,7.3 43.25,8.51 45.66,7.3 43.25,7.3"/><polygon class="st3" points="43.71,8.72 43,7.75 45.66,7.3 43.71,8.72"/><polygon class="st3" points="43.25,7.3 43.25,8.51 40.84,7.3 43.25,7.3"/><polygon class="st3" points="42.79,8.72 43.5,7.75 40.84,7.3 42.79,8.72"/><polygon class="st3" points="44,7.85 42.85,8.22 44.74,10.14 44,7.85"/><polygon class="st3" points="42.79,8.72 43.5,7.75 44.74,10.14 42.79,8.72"/><polygon class="st3" points="42.5,7.85 43.65,8.22 43.25,5.55 42.5,7.85"/><polygon class="st3" points="44,7.85 42.85,8.22 43.25,5.55 44,7.85"/><polygon class="st3" points="42.5,7.85 43.65,8.22 41.76,10.14 42.5,7.85"/><polygon class="st3" points="43.71,8.72 43,7.75 41.76,10.14 43.71,8.72"/><polygon class="st0" points="43.25,7.57 43.25,8.37 44.84,7.57 43.25,7.57"/><polygon class="st0" points="43.55,8.51 43.08,7.86 44.84,7.57 43.55,8.51"/><polygon class="st0" points="43.25,7.57 43.25,8.37 41.66,7.57 43.25,7.57"/><polygon class="st0" points="42.95,8.51 43.41,7.86 41.66,7.57 42.95,8.51"/><polygon class="st0" points="43.74,7.93 42.98,8.17 44.23,9.44 43.74,7.93"/><polygon class="st0" points="42.95,8.51 43.41,7.86 44.23,9.44 42.95,8.51"/><polygon class="st0" points="42.76,7.93 43.51,8.17 43.25,6.41 42.76,7.93"/><polygon class="st0" points="43.74,7.93 42.98,8.17 43.25,6.41 43.74,7.93"/><polygon class="st0" points="42.76,7.93 43.51,8.17 42.26,9.44 42.76,7.93"/><polygon class="st0" points="43.55,8.51 43.08,7.86 42.26,9.44 43.55,8.51"/><polygon class="st3" points="49.56,12.88 49.56,13.95 51.71,12.88 49.56,12.88"/><polygon class="st3" points="49.97,14.14 49.34,13.27 51.71,12.88 49.97,14.14"/><polygon class="st3" points="49.56,12.88 49.56,13.95 47.42,12.88 49.56,12.88"/><polygon class="st3" points="49.15,14.14 49.79,13.27 47.42,12.88 49.15,14.14"/><polygon class="st3" points="50.23,13.36 49.21,13.69 50.89,15.4 50.23,13.36"/><polygon class="st3" points="49.15,14.14 49.79,13.27 50.89,15.4 49.15,14.14"/><polygon class="st3" points="48.9,13.36 49.92,13.69 49.56,11.32 48.9,13.36"/><polygon class="st3" points="50.23,13.36 49.21,13.69 49.56,11.32 50.23,13.36"/><polygon class="st3" points="48.9,13.36 49.92,13.69 48.24,15.4 48.9,13.36"/><polygon class="st3" points="49.97,14.14 49.34,13.27 48.24,15.4 49.97,14.14"/><polygon class="st0" points="49.56,13.15 49.56,13.81 50.89,13.15 49.56,13.15"/><polygon class="st0" points="49.82,13.93 49.43,13.39 50.89,13.15 49.82,13.93"/><polygon class="st0" points="49.56,13.15 49.56,13.81 48.24,13.15 49.56,13.15"/><polygon class="st0" points="49.31,13.93 49.7,13.39 48.24,13.15 49.31,13.93"/><polygon class="st0" points="49.98,13.44 49.34,13.65 50.39,14.71 49.98,13.44"/><polygon class="st0" points="49.31,13.93 49.7,13.39 50.39,14.71 49.31,13.93"/><polygon class="st0" points="49.15,13.44 49.79,13.65 49.56,12.18 49.15,13.44"/><polygon class="st0" points="49.98,13.44 49.34,13.65 49.56,12.18 49.98,13.44"/><polygon class="st0" points="49.15,13.44 49.79,13.65 48.74,14.71 49.15,13.44"/><polygon class="st0" points="49.82,13.93 49.43,13.39 48.74,14.71 49.82,13.93"/><polygon class="st3" points="35.88,14.72 35.88,15.92 38.29,14.72 35.88,14.72"/><polygon class="st3" points="36.34,16.13 35.63,15.16 38.29,14.72 36.34,16.13"/><polygon class="st3" points="35.88,14.72 35.88,15.92 33.47,14.72 35.88,14.72"/><polygon class="st3" points="35.42,16.13 36.13,15.16 33.47,14.72 35.42,16.13"/><polygon class="st3" points="36.63,15.26 35.48,15.63 37.37,17.55 36.63,15.26"/><polygon class="st3" points="35.42,16.13 36.13,15.16 37.37,17.55 35.42,16.13"/><polygon class="st3" points="35.14,15.26 36.28,15.63 35.88,12.96 35.14,15.26"/><polygon class="st3" points="36.63,15.26 35.48,15.63 35.88,12.96 36.63,15.26"/><polygon class="st3" points="35.14,15.26 36.28,15.63 34.39,17.55 35.14,15.26"/><polygon class="st3" points="36.34,16.13 35.63,15.16 34.39,17.55 36.34,16.13"/><polygon class="st0" points="35.88,14.98 35.88,15.78 37.48,14.98 35.88,14.98"/><polygon class="st0" points="36.19,15.92 35.72,15.27 37.48,14.98 36.19,15.92"/><polygon class="st0" points="35.88,14.98 35.88,15.78 34.29,14.98 35.88,14.98"/><polygon class="st0" points="35.58,15.92 36.05,15.27 34.29,14.98 35.58,15.92"/><polygon class="st0" points="36.37,15.34 35.62,15.59 36.87,16.86 36.37,15.34"/><polygon class="st0" points="35.58,15.92 36.05,15.27 36.87,16.86 35.58,15.92"/><polygon class="st0" points="35.39,15.34 36.15,15.59 35.88,13.82 35.39,15.34"/><polygon class="st0" points="36.37,15.34 35.62,15.59 35.88,13.82 36.37,15.34"/><polygon class="st0" points="35.39,15.34 36.15,15.59 34.9,16.86 35.39,15.34"/><polygon class="st0" points="36.19,15.92 35.72,15.27 34.9,16.86 36.19,15.92"/><polygon class="st3" points="43.25,26.35 43.25,27.69 45.93,26.35 43.25,26.35"/><polygon class="st3" points="43.76,27.92 42.97,26.84 45.93,26.35 43.76,27.92"/><polygon class="st3" points="43.25,26.35 43.25,27.69 40.57,26.35 43.25,26.35"/><polygon class="st3" points="42.74,27.92 43.53,26.84 40.57,26.35 42.74,27.92"/><polygon class="st3" points="44.08,26.95 42.8,27.37 44.91,29.5 44.08,26.95"/><polygon class="st3" points="42.74,27.92 43.53,26.84 44.91,29.5 42.74,27.92"/><polygon class="st3" points="42.42,26.95 43.7,27.37 43.25,24.4 42.42,26.95"/><polygon class="st3" points="44.08,26.95 42.8,27.37 43.25,24.4 44.08,26.95"/><polygon class="st3" points="42.42,26.95 43.7,27.37 41.59,29.5 42.42,26.95"/><polygon class="st3" points="43.76,27.92 42.97,26.84 41.59,29.5 43.76,27.92"/><polygon class="st0" points="43.25,26.62 43.25,27.54 45.11,26.62 43.25,26.62"/><polygon class="st0" points="43.6,27.71 43.06,26.96 45.11,26.62 43.6,27.71"/><polygon class="st0" points="43.25,26.62 43.25,27.54 41.39,26.62 43.25,26.62"/><polygon class="st0" points="42.89,27.71 43.44,26.96 41.39,26.62 42.89,27.71"/><polygon class="st0" points="43.82,27.03 42.94,27.32 44.4,28.8 43.82,27.03"/><polygon class="st0" points="42.89,27.71 43.44,26.96 44.4,28.8 42.89,27.71"/><polygon class="st0" points="42.67,27.03 43.56,27.32 43.25,25.26 42.67,27.03"/><polygon class="st0" points="43.82,27.03 42.94,27.32 43.25,25.26 43.82,27.03"/><polygon class="st0" points="42.67,27.03 43.56,27.32 42.1,28.8 42.67,27.03"/><polygon class="st0" points="43.6,27.71 43.06,26.96 42.1,28.8 43.6,27.71"/></g></svg>