<svg xmlns="http://www.w3.org/2000/svg" xmlns:xlink="http://www.w3.org/1999/xlink" viewBox="0 0 33.56 19.58"><defs><style>.cls-1{fill:none;}.cls-2{clip-path:url(#clip-path);}.cls-3{fill:#fff;}.cls-4{fill:#2a680b;}</style><clipPath id="clip-path"><rect class="cls-1" width="33.56" height="19.58"/></clipPath></defs><g id="Layer_2" data-name="Layer 2"><g id="_4" data-name="4"><g id="PAKISTAN"><g class="cls-2"><rect class="cls-3" width="33.56" height="19.58"/><rect class="cls-4" x="8.39" width="25.17" height="19.58"/><g class="cls-2"><path class="cls-3" d="M20.45,3.92a5.87,5.87,0,1,1-5.87,5.87,5.87,5.87,0,0,1,5.87-5.87"/><path class="cls-4" d="M18.38,4.43a5.38,5.38,0,1,1-.45,7.6,5.37,5.37,0,0,1,.45-7.6"/><polygon class="cls-3" points="24.82 5.89 23.04 6.67 23.43 7.57 24.82 5.89"/><polygon class="cls-3" points="24.82 5.89 23.84 7.58 22.99 7.08 24.82 5.89"/><polygon class="cls-3" points="25.05 8.18 23.75 6.71 23.03 7.37 25.05 8.18"/><polygon class="cls-3" points="25.05 8.18 23.14 7.76 23.35 6.8 25.05 8.18"/><polygon class="cls-3" points="22.58 5.39 22.78 7.34 23.75 7.25 22.58 5.39"/><polygon class="cls-3" points="22.58 5.39 23.88 6.86 23.15 7.51 22.58 5.39"/><polygon class="cls-3" points="22.95 9.1 23.94 7.41 23.09 6.92 22.95 9.1"/><polygon class="cls-3" points="22.95 9.1 22.75 7.15 23.73 7.05 22.95 9.1"/><polygon class="cls-3" points="21.42 7.38 23.33 7.8 23.54 6.85 21.42 7.38"/><polygon class="cls-3" points="21.42 7.38 23.21 6.6 23.6 7.5 21.42 7.38"/></g></g></g></g></g></svg>