<svg xmlns="http://www.w3.org/2000/svg" xmlns:xlink="http://www.w3.org/1999/xlink" viewBox="0 0 33.56 19.58"><defs><style>.cls-1{fill:#fff;}.cls-2{clip-path:url(#clip-path);}.cls-3{fill:#d03033;}.cls-4{fill:#1f189b;}.cls-5{fill:#f2b126;}.cls-6{fill:#32784c;}</style><clipPath id="clip-path"><rect class="cls-1" width="33.56" height="19.58"/></clipPath></defs><g id="Layer_2" data-name="Layer 2"><g id="_4" data-name="4"><g id="SOUTH_AFRICA" data-name="SOUTH AFRICA"><rect class="cls-1" width="33.56" height="19.58"/><g class="cls-2"><polygon class="cls-3" points="5.88 0 15.67 6.52 33.56 6.52 33.56 0 5.88 0"/><polygon class="cls-1" points="17.63 7.83 33.56 7.83 33.56 6.52 15.67 6.52 17.63 7.83"/><polygon class="cls-1" points="15.67 13.05 33.56 13.05 33.56 11.75 17.63 11.75 15.67 13.05"/><polygon class="cls-4" points="15.67 13.05 5.88 19.58 33.56 19.58 33.56 13.05 15.67 13.05"/><polygon points="0 6.52 3.9 6.52 0 3.92 0 6.52"/><polygon points="0 6.52 0 13.05 3.9 13.05 8.8 9.79 3.9 6.52 0 6.52"/><polygon points="0 13.05 0 15.66 3.9 13.05 0 13.05"/><polygon class="cls-5" points="0 3.92 8.8 9.79 0 15.66 0 17.22 11.15 9.79 0 2.35 0 3.92"/><polygon class="cls-6" points="0 0 0 2.35 11.15 9.79 0 17.22 0 19.58 3.53 19.58 15.28 11.75 33.56 11.75 33.56 7.83 15.28 7.83 3.53 0 0 0"/></g></g></g></g></svg>