<svg xmlns="http://www.w3.org/2000/svg" xmlns:xlink="http://www.w3.org/1999/xlink" viewBox="0 0 33.56 19.58"><defs><style>.cls-1{fill:none;}.cls-2{clip-path:url(#clip-path);}.cls-3{fill:#f5cd28;}.cls-4{fill:#ed6f22;}.cls-5{fill:#2f742e;}.cls-6{fill:#8e1841;}</style><clipPath id="clip-path"><rect class="cls-1" width="33.56" height="19.58"/></clipPath></defs><g id="Layer_2" data-name="Layer 2"><g id="_4" data-name="4"><g id="SRI_LANKA" data-name="SRI LANKA"><g class="cls-2"><rect class="cls-3" width="33.56" height="19.58"/><rect class="cls-4" x="7.1" y="2.05" width="5.7" height="15.47"/><rect class="cls-5" x="1.48" y="2.05" width="5.62" height="15.48"/><rect class="cls-6" x="14.28" y="2.05" width="17.8" height="15.48"/><g class="cls-2"><path class="cls-3" d="M21.07,9.24h.29a.74.74,0,0,0-.25.65c.34-.51.47-.41.47-.41a.47.47,0,0,0-.15.62,1.88,1.88,0,0,1,.41-.63,1.44,1.44,0,0,0,.09.75,2.9,2.9,0,0,1,.33-.66s0,.38.14.53a1,1,0,0,0,.22-.43s.26.45.42.52a1.68,1.68,0,0,0,.12-.55s.53.38.95.16a.91.91,0,0,1-.5-.46s.68.3,1,.17a7.68,7.68,0,0,0-1-.54,2,2,0,0,0,.64.14A1.13,1.13,0,0,0,24,8.89Z"/><path class="cls-6" d="M22,10.24a1.23,1.23,0,0,1-.13-.74,3.14,3.14,0,0,0-.37.61.43.43,0,0,1,.08-.6l0,0s-.16,0-.44.43a.71.71,0,0,1,.23-.68l-.28,0a0,0,0,0,1,0,0,0,0,0,0,1,0,0h.29s-.31.31-.24.67c.19-.34.33-.42.41-.43h.06l0,.06a.44.44,0,0,0-.12.57,1.64,1.64,0,0,1,.39-.63,2.22,2.22,0,0,0,.12.75,3,3,0,0,1,.29-.67s0,.4.17.54a1.34,1.34,0,0,0,.2-.43s.28.45.43.51a2.07,2.07,0,0,0,.11-.53,1.79,1.79,0,0,0,.67.2.57.57,0,0,0,.28-.06.79.79,0,0,1-.51-.43,3.89,3.89,0,0,0,.8.18.54.54,0,0,0,.19,0,10.24,10.24,0,0,0-1-.51s.41.1.59.1h.06C24.19,9,24,8.91,24,8.9a.64.64,0,0,1,.31.19A1,1,0,0,1,23.77,9a4.55,4.55,0,0,1,.83.46c-.28.15-.89-.09-1-.13a1.12,1.12,0,0,0,.5.41,1,1,0,0,1-1-.12,1.07,1.07,0,0,1-.1.54c-.18-.06-.41-.45-.45-.51a.71.71,0,0,1-.2.42.65.65,0,0,1-.17-.52,6.19,6.19,0,0,0-.29.65Z"/><path class="cls-3" d="M25.17,5.57a6,6,0,0,1,3,1.16c0-.17,0-.34.17-.42a.25.25,0,0,1,.33.33c-.25.58-1.24-.08-1.57-.25l.17.34a1.14,1.14,0,0,1-.91-.58c-.08.33-.08.41-.49.41.15-.25.2-.33,0-.58l-.09.5-.41-.58v.58a1.23,1.23,0,0,0-.58-.33c-.24-.08-.41.41-.49.65.25-.24.33-.41.74-.24-.22.21-.15.46.08.66,0,0,0-.34.07-.42.13.09.41.46.76.5a2.46,2.46,0,0,0,.74-.16c.83-.09,2.64.08,2.23,1.31a1.38,1.38,0,0,1-.33.58c1.15.41.16,1.9-.09,2.63s0,1.19.77,1.11a.75.75,0,0,1-.77.38.47.47,0,0,0,.26.29c-.35.31.12.79-.09,1a1,1,0,0,1-.82-.08l0,.23s-.62,0-.63-.06.17-.34.16-.34a.59.59,0,0,1-.66.34A.78.78,0,0,1,27,14.2c-.25.25-.28.35-.54.35,0-.41.25-.91.74-.75.09,0,.35.21.47.08s0-.63,0-.79c.05-.73-.09-.68-.51-1.1-.33-.24-.57-.62-1-.7s-1.08.37-1.41.54a7.2,7.2,0,0,1-2.47,1,.32.32,0,0,0,0-.13,3.5,3.5,0,0,0,1-2,5.93,5.93,0,0,1-1.14,2.06,2.32,2.32,0,0,1-.23.62,2.24,2.24,0,0,1,.89-.26c-.1.51-.58.41-.66.65s.33.58,0,.75H20.89a1.8,1.8,0,0,0,.21-.36c-.18.11-.29.39-.68.36,0-.11.2-.27.17-.34-.22.21-.33.38-.61.34.08-.25.08-.58.41-.58s.5.08.66-.17c.33-.41-.06-1.31-.14-1.8a3.33,3.33,0,0,0-.11-1l.09,1.48a4.1,4.1,0,0,1-.91-.74,1.33,1.33,0,0,1,.33-2.06,3.23,3.23,0,0,1,.92-.54c-.08-.25.12-.44-.17-.51-.09.15-.18.32-.35.31l.09-.41s-.29,0-.23.55a.42.42,0,0,1-.18-.55h-.16s0,.48-.27.58a3.51,3.51,0,0,0,.1-.58s-.44.52-.7.35c.15-.17.27-.2.25-.41A3,3,0,0,0,19.47,8a1.6,1.6,0,0,0,1.1,0,.91.91,0,0,0,0,.28,1.21,1.21,0,0,1,.91.08c-.09-.57-.42-.66-.75-1.07v.33c-.33-.08-.41-.17-.58-.49l-.24.16c-.44-.26-.76-.87-.14-.83.37,0,0,.33,0,.33a10.18,10.18,0,0,1,1.32-.32.56.56,0,0,0-.45-.28c.29-.21.58-.28.79.18.2,0,.39-.24.27-.56a.67.67,0,0,1,.6.39c.11,0,.23-.1.2-.51.29.25.43.32.45.53a1.12,1.12,0,0,0,.78-.16c-.08.32-.08.41-.41.57a.92.92,0,0,1,.21.76l-.16,0a6.23,6.23,0,0,1,0,.68h-.17l.25.75L23.36,9a13.49,13.49,0,0,1,1.73-.33,15.84,15.84,0,0,1,2.06-.33c.5,0,.5.25,1.16.25V8.21a.8.8,0,0,0-.66-.75,3.86,3.86,0,0,0-.91.25,5,5,0,0,1-1.15.09,2.06,2.06,0,0,1-1.28-.48c-.22.06-.35.25-.46.59a.61.61,0,0,1,.09-.86c-.25-.9.41-1.32,1.23-1.48Z"/><path class="cls-3" d="M25.42,13c-.16-.25-.74-.66-.58-1.07s1.66-1.07,1.9-.16a3,3,0,0,1-.25,1.15.87.87,0,0,1,.67-.16c-.08.33-.57.58-.57.58a5,5,0,0,1-.34,1.23H25.17l.17-.33-.25.33h-.41l.33-.41s-.39.45-.72.43c.08-.66.47-.77,1.05-.52.08-.32.25-.74.08-1.07Z"/><path class="cls-6" d="M24.31,14.59h0c.05-.65.42-.82,1.06-.55a.32.32,0,0,1,0-.16,1.3,1.3,0,0,0,0-.89l-.19-.22c-.23-.24-.52-.55-.39-.87a1.83,1.83,0,0,1,1.29-.63.61.61,0,0,1,.64.47,2.44,2.44,0,0,1-.22,1l0,.11a.22.22,0,0,1,.09-.07.74.74,0,0,1,.57-.1c-.06.34-.54.59-.56.6a4.35,4.35,0,0,1-.34,1.22H25.17l.16-.35-.22.35h-.43l.21-.29a.91.91,0,0,1-.58.32Zm.59-.34-.21.31.4,0,.24-.32-.14.34,1.06,0a6.24,6.24,0,0,0,.32-1.21s.5-.27.57-.58H27a.72.72,0,0,0-.39.12l-.11.06,0-.15a2.58,2.58,0,0,0,.22-1,.59.59,0,0,0-.61-.44,1.78,1.78,0,0,0-1.26.61c-.12.29.16.59.39.83a1.62,1.62,0,0,1,.19.22,1.33,1.33,0,0,1,0,.92c0,.06,0,.11,0,.16a2,2,0,0,0-.51-.1c-.31,0-.49.2-.54.61.31,0,.68-.43.69-.44h0a.35.35,0,0,1-.1.13Z"/><path class="cls-3" d="M21,6.78c-.1.07,0,.52.16.45s-.07-.5-.16-.45Z"/><path class="cls-6" d="M21.12,7.25c-.07,0-.13-.07-.16-.18s0-.26,0-.3.22.14.25.27a.16.16,0,0,1-.09.2ZM21,6.79c-.05,0-.06.16,0,.27s.07.15.13.15v0l0,0a.13.13,0,0,0,.06-.16c0-.13-.14-.26-.19-.26Z"/><path class="cls-3" d="M21.11,6.64c.21.14.53.52.93.5-.3-.25-.24-.43-.24-.43a1.11,1.11,0,0,0,.85.29c-.2-.15-.24-.17-.28-.31a1.59,1.59,0,0,0,.78,0Z"/><path class="cls-6" d="M22,7.14a1.13,1.13,0,0,1-.7-.36l-.16-.13s0,0,0,0h0l.16.13a1.11,1.11,0,0,0,.76.37c-.32-.22-.26-.41-.26-.41a1.26,1.26,0,0,0,.87.27h-.07c-.15-.11-.19-.14-.23-.27l.09,0a1.28,1.28,0,0,0,.7,0,1.08,1.08,0,0,1-.71.07h-.06c.05.1.08.12.24.23l.06,0a1,1,0,0,1-.88-.24.67.67,0,0,0,.26.39Z"/><path class="cls-3" d="M21.5,9.15l0-.35s.22.53.39.54a1.74,1.74,0,0,1-.06-.69Z"/><path class="cls-6" d="M21.93,9.34c-.19,0-.4-.48-.42-.53v.34l0,0v0l0-.35c.09.14.28.52.41.52a1.7,1.7,0,0,1-.08-.68,6.28,6.28,0,0,0,.09.7Z"/><path class="cls-3" d="M22,8.73s.45.82.67.69a.85.85,0,0,1-.29-.67,1,1,0,0,0,.59.66,2,2,0,0,0-.17-.75s.37.65.55.66A.38.38,0,0,0,23.46,9Z"/><path class="cls-6" d="M22.64,9.45h0c-.24-.06-.58-.68-.6-.71a0,0,0,0,1,0,0h0s.34.64.57.69h.07a.8.8,0,0,1-.3-.67s.19.5.62.65a2.52,2.52,0,0,0-.2-.72h0s0,0,0,0c.14.2.4.58.53.6A.37.37,0,0,0,23.44,9h0s.08.16,0,.32c-.16,0-.39-.35-.51-.54a1.36,1.36,0,0,1,.13.61,1,1,0,0,1-.61-.61,1,1,0,0,0,.3.61.09.09,0,0,1-.07,0Z"/><path class="cls-3" d="M21.68,8.16l.33.42,0-.56s.32.25.38.24-.09-.6-.09-.6a7.11,7.11,0,0,0,.47.65,5.07,5.07,0,0,0,0-.66s.34.91.45.91.08-.13.08-.13Z"/><path class="cls-6" d="M22,8.58l-.37-.41v0h0l.33.42L22,8l.4.24a2.69,2.69,0,0,0-.1-.59c.18.23.45.61.48.63s0-.34,0-.64a3.66,3.66,0,0,0,.46.89.05.05,0,0,0,.05,0,.13.13,0,0,0,0-.08s.05.06,0,.11a.1.1,0,0,1-.08,0h0c-.12,0-.38-.69-.46-.91,0,.64,0,.66,0,.66s0,0-.49-.65a1.67,1.67,0,0,1,.13.6c-.09,0-.35-.18-.42-.24l0,.55Z"/><path class="cls-3" d="M21.43,7.42a3.63,3.63,0,0,0,.56.44c.05,0-.21-.54-.21-.54a1.56,1.56,0,0,0,.41.29c.11,0,0-.36,0-.36s.34.3.4.28,0-.28,0-.28l.24.23s0-.65,0-.65a5.43,5.43,0,0,0,.54.53Z"/><path class="cls-6" d="M22,7.88a2.48,2.48,0,0,1-.58-.45v0h0a2.74,2.74,0,0,0,.55.43h0a3,3,0,0,0-.22-.52,3.06,3.06,0,0,0,.42.28c.06,0,0-.23,0-.34a2.66,2.66,0,0,0,.42.26.46.46,0,0,0,0-.26c.14.08.25.2.27.2a4.9,4.9,0,0,1-.07-.62c.21.18.52.49.56.5s0,0-.56-.49a5,5,0,0,1,.08.64s0,0-.27-.22c0,.07.05.26,0,.28s-.33-.2-.42-.28a.42.42,0,0,1,0,.35h-.06a1.67,1.67,0,0,1-.41-.3c.21.33.28.52.23.54Z"/><path class="cls-3" d="M19.38,7.59s.11.7,1.14.43c.1-.06.05.18.05.25a1.09,1.09,0,0,1,.87.07.71.71,0,0,0-.4-.62.34.34,0,0,0-.25,0s-1.24,0-1.41-.17Z"/><path class="cls-6" d="M21.44,8.36h0A.68.68,0,0,0,21,8.23a1.44,1.44,0,0,0-.39.06h-.05v0a.44.44,0,0,0,0-.2,1.85,1.85,0,0,1-.48.07.65.65,0,0,1-.7-.49h0c.17.42.54.56,1.14.4h.07s0,.12,0,.22v0a.89.89,0,0,1,.4-.08.83.83,0,0,1,.43.11A.66.66,0,0,0,21,7.74H21a.32.32,0,0,0-.17,0c-.33,0-1.28,0-1.43-.18v0h0a3.28,3.28,0,0,0,1.37.18.53.53,0,0,1,.21,0H21a.73.73,0,0,1,.42.64v0Z"/><path class="cls-3" d="M18.82,11.82c0,.08-.07.1-.22.32.06.1.38.25.46.16s.08-.24.08-.24c.17.24.46.64.79.72a.37.37,0,0,0,.5-.33c0-.25-.38-.65-.54-.81-.42-.5-.38-1.43-1.16-1.3,0,0,0,.12-.11.14s.1.22-.05.25c.12.12.13.2,0,.26.1.12.2.17,0,.27a1.13,1.13,0,0,1,.28.56Z"/><path class="cls-6" d="M20.06,12.82a.28.28,0,0,1-.13,0,1.53,1.53,0,0,1-.79-.7c0,.05,0,.2-.07.23s0,0-.08,0h0a.68.68,0,0,1-.41-.19l.15-.22a.28.28,0,0,0,.07-.11,1.09,1.09,0,0,0-.27-.55c.07-.06.11-.09.12-.12s0-.05-.06-.09L18.54,11c.06-.05.1-.07.1-.11s0-.08-.08-.14a.7.7,0,0,0,.09-.09s0-.1,0-.18a.22.22,0,0,0,.1-.14l.16,0c.42,0,.57.36.72.74a2.93,2.93,0,0,0,.31.58c.16.16.54.57.54.82a.37.37,0,0,1-.38.37Zm-.93-.76a1.73,1.73,0,0,0,.81.7.35.35,0,0,0,.47-.31c0-.24-.37-.64-.53-.8a2.39,2.39,0,0,1-.32-.59c-.16-.41-.32-.79-.82-.7a.17.17,0,0,1-.11.13.22.22,0,0,1,.06.19.22.22,0,0,1-.12.07c.09,0,.12.1.11.15s-.05.08-.12.1,0,0,.06,0,.07.08.06.12-.05.07-.13.11a1,1,0,0,1,.28.52.22.22,0,0,1-.07.16l-.15.2c.06.06.38.2.44.14s.08-.18.08-.23Z"/><path class="cls-3" d="M18.62,4.84a25.09,25.09,0,0,0-.2,5.11,1.18,1.18,0,0,1-.84,0c.06-.28.28-4.87,1-5.15Z"/><path class="cls-6" d="M18,10.07a1.32,1.32,0,0,1-.41-.06c0-.07,0-.28,0-.55.11-1.32.37-4.4,1-4.64A27.81,27.81,0,0,0,18.44,10a.81.81,0,0,1-.46.12Zm.62-5.24c-.59.25-.85,3.43-1,4.63,0,.29,0,.48,0,.54s.22,0,.38,0a.74.74,0,0,0,.43-.1,24.67,24.67,0,0,1,.19-5.1Z"/><path class="cls-3" d="M17.91,12.94s-1.09.15-.63-.49c.4-.18.39.23.24.36a.29.29,0,0,0,.33-.27.35.35,0,0,1,.07-.5c-.76.17-.86-.35-.58-.43s.24.13.39.24c.25-.24.41-.26.56,0,.16-.24.38-.21.39-.19.24.42-.3.45-.52.4a.44.44,0,0,1,0,.54c0,.15.12.17.3.22-.38-1,1.32.28-.39.15,0,.05,0,.09,0,.14s.24.05.28.2-.15.09-.3,0,.09.24-.07.3a.4.4,0,0,1-.14-.26c-.07.09-.18,0-.27,0,.08-.2.31-.11.29-.39Z"/><path class="cls-3" d="M17,9.78c.07-.3.76-.26.43.06.22.35.89.3,1.15.1-.22-.41.36-.32.34,0-.07.55-2,.48-1.92-.15Z"/><path class="cls-3" d="M29.62,15a13.14,13.14,0,0,0,.77,1.51.67.67,0,0,0,.81,0s.3.31.42.4a.26.26,0,0,0,.12-.09c-.12-.13-.29-.21-.37-.46a.86.86,0,0,0,.1-.73c-.36-.6-1.56-.37-1.85-.59Z"/><path class="cls-6" d="M31.62,16.93h0c-.12-.1-.41-.4-.43-.41-.09.18-.61.21-.8,0a4.9,4.9,0,0,1-.52-1c-.1-.21-.19-.41-.26-.53a3.31,3.31,0,0,0,.64.1c.46,0,1,.09,1.25.47a.89.89,0,0,1-.11.75.74.74,0,0,0,.26.33.57.57,0,0,1,.11.11.22.22,0,0,1-.12.12Zm-.44-.45s.32.31.44.4a.17.17,0,0,0,.1-.08.35.35,0,0,1-.1-.08.73.73,0,0,1-.27-.36.92.92,0,0,0,.11-.74c-.22-.36-.78-.41-1.22-.45a1.32,1.32,0,0,1-.63-.13,2.16,2.16,0,0,1,.28.51,5.23,5.23,0,0,0,.51,1,.69.69,0,0,0,.78-.05Z"/><path class="cls-3" d="M16.74,4.53A12.3,12.3,0,0,0,16,3a.66.66,0,0,0-.8,0s-.3-.31-.42-.4a.21.21,0,0,0-.12.09c.12.13.29.21.37.46a.9.9,0,0,0-.11.73c.36.6,1.56.36,1.86.59Z"/><path class="cls-6" d="M16.73,4.54a1.41,1.41,0,0,0-.61-.12c-.46,0-1-.09-1.25-.47A.89.89,0,0,1,15,3.2a.74.74,0,0,0-.26-.33l-.11-.11a.16.16,0,0,1,.12-.12,3.87,3.87,0,0,1,.44.41c.09-.18.62-.21.81,0a5.87,5.87,0,0,1,.52,1c.09.21.18.41.25.54l0,0Zm-2-1.87a.34.34,0,0,0-.09.09.59.59,0,0,1,.11.08A.8.8,0,0,1,15,3.2a.9.9,0,0,0-.11.73c.22.37.78.42,1.22.45a2.18,2.18,0,0,1,.57.1L16.46,4A5.41,5.41,0,0,0,16,3a.71.71,0,0,0-.78,0s-.33-.31-.45-.4Z"/><path class="cls-3" d="M16.62,15a14.11,14.11,0,0,0-1.52.78.66.66,0,0,0,.05.81,5.7,5.7,0,0,0-.41.42.26.26,0,0,0,.09.12c.14-.13.21-.29.46-.38a.83.83,0,0,0,.73.11c.6-.36.37-1.56.6-1.86Z"/><path class="cls-6" d="M14.83,17.11h0a.33.33,0,0,1-.1-.12,5.1,5.1,0,0,1,.41-.44A.46.46,0,0,1,15,16.2a.63.63,0,0,1,.12-.47,4.9,4.9,0,0,1,1-.52l.54-.26a2.68,2.68,0,0,0-.11.64c0,.45-.08,1-.47,1.25a1,1,0,0,1-.25,0h0a.9.9,0,0,1-.5-.15A.8.8,0,0,0,15,17l-.1.11ZM16.6,15a3,3,0,0,1-.52.28,4.92,4.92,0,0,0-1,.51.58.58,0,0,0-.11.45.49.49,0,0,0,.15.34s-.31.32-.41.44a.36.36,0,0,0,.08.09.44.44,0,0,0,.09-.11.77.77,0,0,1,.37-.26.89.89,0,0,0,.73.1c.36-.21.41-.77.45-1.21A1.32,1.32,0,0,1,16.6,15Z"/><path class="cls-3" d="M29.65,4.53A14,14,0,0,1,30.42,3a.67.67,0,0,1,.81,0s.3-.31.42-.4a.21.21,0,0,1,.12.09c-.12.13-.29.21-.37.46a.9.9,0,0,1,.11.73c-.36.6-1.56.36-1.86.59Z"/><path class="cls-6" d="M29.66,4.54l0,0A4.62,4.62,0,0,0,29.89,4a5.32,5.32,0,0,1,.52-1,.72.72,0,0,1,.84,0,1.94,1.94,0,0,1,.39-.41.21.21,0,0,1,.15.1.77.77,0,0,1-.12.13.72.72,0,0,0-.26.34.82.82,0,0,1,.11.73c-.23.39-.79.44-1.25.48a1.41,1.41,0,0,0-.61.12ZM30.8,2.92a.53.53,0,0,0-.36.11,5.32,5.32,0,0,0-.52,1l-.22.48a2.18,2.18,0,0,1,.57-.1c.45,0,1-.08,1.22-.45a.84.84,0,0,0-.11-.71.76.76,0,0,1,.27-.38.47.47,0,0,0,.1-.1s-.05-.05-.1-.07l-.41.4a.65.65,0,0,0-.44-.15Z"/><path class="cls-3" d="M17.28,10.45c0,.12.29.18.59.18s.62-.05.64-.13-.27,0-.58,0-.57-.12-.65,0Z"/><path class="cls-3" d="M17.89,10.65h0c-.11,0-.48,0-.58-.12a.08.08,0,0,1,0-.08c.05-.07.16-.06.33,0l.33,0h0a2.51,2.51,0,0,0,.31,0c.13,0,.23,0,.26,0a.06.06,0,0,1,0,.07c0,.12-.42.15-.63.15Zm-.49-.22a.13.13,0,0,0-.1,0s0,0,0,0a1,1,0,0,0,.55.12h0c.35,0,.59-.07.6-.12s0,0,0,0-.12,0-.23,0a1.48,1.48,0,0,1-.31,0,1.59,1.59,0,0,1-.34,0l-.2,0Z"/><path class="cls-3" d="M17.31,10.8c0,.12.3.15.56.15s.53,0,.58-.13-.34,0-.58,0-.5-.12-.56,0Z"/><path class="cls-3" d="M17.92,11h-.05c-.27,0-.58,0-.58-.17a.12.12,0,0,1,.12-.06l.19,0a1.07,1.07,0,0,0,.25,0l.25,0,.21,0c.05,0,.13,0,.15.08s-.32.15-.54.15Zm-.51-.2a.1.1,0,0,0-.09,0c0,.07.19.12.55.12h.05a.82.82,0,0,0,.51-.12s-.16-.05-.32,0l-.24,0a1.27,1.27,0,0,1-.28,0,.62.62,0,0,0-.18,0Z"/><path class="cls-3" d="M17.39,11.11c0,.09.24.15.48.16s.59-.09.59-.19-.35,0-.58,0-.49-.08-.49,0Z"/><path class="cls-3" d="M17.88,11.28h0a.75.75,0,0,1-.48-.12s0,0,0-.05.07,0,.09,0h.15a.93.93,0,0,0,.24,0,1.42,1.42,0,0,0,.31,0l.22,0s.09,0,.1.05-.37.2-.6.2Zm-.42-.19s-.05,0-.05,0,.26.14.47.14v0c.24,0,.56-.1.56-.17a.71.71,0,0,0-.27,0l-.29,0-.27,0-.15,0Z"/><path class="cls-3" d="M17.36,11.43c0,.09.32.12.58.1s.53-.1.55-.2-.31.05-.56.06-.57,0-.57,0Z"/><path class="cls-3" d="M17.79,11.55c-.1,0-.42,0-.44-.12s.08-.06.19-.06h.39a1.65,1.65,0,0,0,.32,0l.2,0s.05,0,.06,0-.31.2-.57.21Zm-.25-.14c-.09,0-.15,0-.16,0s.15.09.41.09h.15c.27,0,.51-.1.53-.18l-.21,0-.33.05h-.39Z"/></g></g></g></g></g></svg>